<svg width="150" height="151" viewBox="0 0 150 151" fill="none" xmlns="http://www.w3.org/2000/svg">
<path d="M75 150C116.421 150 150 116.421 150 75C150 33.5786 116.421 0 75 0C33.5786 0 0 33.5786 0 75C0 116.421 33.5786 150 75 150Z" fill="#D0F7FD"/>
<path d="M26 31.8727L26 138.018C32.7375 138.164 38.1724 143.598 38.318 150.336H110.127C110.275 143.506 115.857 138.015 122.722 138.015C122.815 138.015 122.908 138.016 123 138.018L123 31.8727C122.945 31.8739 122.889 31.8748 122.834 31.8753C122.797 31.8756 122.76 31.8758 122.722 31.8758C115.764 31.8758 110.124 26.2352 110.124 19.2772C110.124 19.2233 110.124 19.1696 110.125 19.1159C110.125 19.0771 110.126 19.0383 110.127 18.9996H38.318C38.32 19.0919 38.321 19.1844 38.321 19.2772C38.321 26.1424 32.8298 31.7251 26 31.8727Z" fill="white"/>
<path d="M75 68C83.2843 68 90 61.2843 90 53C90 44.7157 83.2843 38 75 38C66.7157 38 60 44.7157 60 53C60 61.2843 66.7157 68 75 68Z" fill="#4285F4"/>
<path d="M75.3849 58.2337L69.9972 61.2495L71.2003 55.1934L66.6667 51.0012L72.7984 50.2739L75.3849 44.667L77.9715 50.2739L84.1032 51.0012L79.5695 55.1934L80.7726 61.2495L75.3849 58.2337Z" fill="white"/>
<path d="M88 97H62C60.3431 97 59 98.3431 59 100C59 101.657 60.3431 103 62 103H88C89.6569 103 91 101.657 91 100C91 98.3431 89.6569 97 88 97Z" fill="#DFEAFB"/>
<path d="M88 128H62C60.3431 128 59 129.343 59 131C59 132.657 60.3431 134 62 134H88C89.6569 134 91 132.657 91 131C91 129.343 89.6569 128 88 128Z" fill="#DFEAFB"/>
<path d="M97 85H53C51.3431 85 50 86.3431 50 88C50 89.6569 51.3431 91 53 91H97C98.6569 91 100 89.6569 100 88C100 86.3431 98.6569 85 97 85Z" fill="#DFEAFB"/>
<path d="M97 117H53C51.3431 117 50 118.343 50 120C50 121.657 51.3431 123 53 123H97C98.6569 123 100 121.657 100 120C100 118.343 98.6569 117 97 117Z" fill="#DFEAFB"/>
</svg>
