<svg width="24" height="24" viewBox="0 0 24 24" fill="none" xmlns="http://www.w3.org/2000/svg">
<path d="M13.0509 7.94138C12.6044 8.38685 11.8808 8.38685 11.4344 7.94138C10.988 7.49588 10.988 6.77349 11.4344 6.32802C11.8808 5.88252 12.6044 5.88252 13.0509 6.32802C13.4972 6.77352 13.4972 7.49592 13.0509 7.94138Z" fill="url(#paint0_linear_7701_4958)"/>
<path d="M14.2279 9.51053C14.3339 9.61698 14.4732 9.67014 14.6124 9.67014C14.6837 9.67024 14.7542 9.65626 14.8201 9.62902C14.8859 9.60177 14.9457 9.56179 14.9961 9.51137C15.6321 8.87662 15.9822 8.03259 15.9822 7.13487C15.9822 6.23705 15.6321 5.39312 14.9961 4.75837C14.7838 4.54638 14.4398 4.54677 14.2279 4.75907C14.0159 4.97152 14.0162 5.31539 14.2286 5.52745C14.6588 5.95685 14.8957 6.52772 14.8957 7.13487C14.8957 7.74202 14.6588 8.31289 14.2286 8.74233C14.0162 8.95422 14.0159 9.29822 14.2279 9.51053Z" fill="url(#paint1_linear_7701_4958)"/>
<path d="M15.8411 11.2695C15.7697 11.2696 15.6989 11.2555 15.6329 11.2282C15.5669 11.2008 15.507 11.1606 15.4566 11.11C15.2446 10.8976 15.245 10.5537 15.4573 10.3417C16.3156 9.48501 16.7885 8.34612 16.7885 7.13474C16.7885 5.92335 16.3156 4.7845 15.4573 3.92784C15.245 3.71578 15.2446 3.37192 15.4566 3.15947C15.6687 2.94716 16.0126 2.94677 16.2249 3.15876C17.2889 4.22077 17.875 5.63279 17.8749 7.13474C17.8749 8.63672 17.2889 10.0488 16.2249 11.1109C16.1745 11.1612 16.1147 11.2012 16.0488 11.2284C15.983 11.2556 15.9124 11.2696 15.8411 11.2695Z" fill="url(#paint2_linear_7701_4958)"/>
<path d="M9.66248 9.62882C9.72834 9.65606 9.79894 9.67004 9.87022 9.66995C9.94165 9.67002 10.0124 9.65595 10.0784 9.62856C10.1443 9.60117 10.2042 9.56099 10.2546 9.51034C10.4666 9.29803 10.4663 8.95403 10.2539 8.74214C9.82367 8.31271 9.58679 7.7418 9.58679 7.13469C9.58679 6.52757 9.82367 5.95667 10.2539 5.52727C10.4663 5.3152 10.4666 4.9712 10.2546 4.75892C10.0427 4.54644 9.69873 4.54616 9.48638 4.75822C8.8504 5.39293 8.50024 6.23683 8.50024 7.13469C8.50024 8.0324 8.8504 8.87644 9.48638 9.51119C9.53677 9.5616 9.59661 9.60157 9.66248 9.62882Z" fill="url(#paint3_linear_7701_4958)"/>
<path d="M19.4014 12.2087H5.08113C4.37927 12.2087 3.8103 12.7776 3.8103 13.4794V19.7292C3.8103 20.431 4.37927 21 5.08113 21H19.4013C20.1032 21 20.6721 20.431 20.6721 19.7292V13.4794C20.6721 12.7777 20.1032 12.2087 19.4014 12.2087ZM7.98937 19.3694H5.98781C5.68786 19.3694 5.44465 19.1262 5.44465 18.8262V14.3825C5.44465 14.0826 5.68786 13.8392 5.98781 13.8392C6.28787 13.8392 6.53108 14.0824 6.53108 14.3825V18.2829H7.98937C8.28943 18.2829 8.53264 18.5262 8.53264 18.8262C8.53264 19.1263 8.28943 19.3694 7.98937 19.3694ZM10.2157 18.8262C10.2157 19.1262 9.97254 19.3694 9.67248 19.3694C9.37242 19.3694 9.12921 19.1262 9.12921 18.8262V14.3825C9.12921 14.0826 9.37242 13.8392 9.67248 13.8392C9.97254 13.8392 10.2157 14.0824 10.2157 14.3825V18.8262ZM14.7866 14.5396L13.4451 18.9832L13.4446 18.9844C13.2989 19.4816 12.5561 19.4694 12.4053 18.9844L12.4049 18.9832L11.0634 14.5396C10.9767 14.2523 11.1392 13.9492 11.4265 13.8624C11.7135 13.7758 12.0168 13.9382 12.1035 14.2255L12.925 16.9464L13.7465 14.2255C13.8333 13.9382 14.1364 13.7756 14.4237 13.8624C14.7108 13.9492 14.8734 14.2523 14.7866 14.5396ZM18.1288 15.7813C18.4289 15.7813 18.6721 16.0245 18.6721 16.3246C18.6721 16.6245 18.4289 16.8679 18.1288 16.8679H16.5872V18.2829H18.4214C18.7215 18.2829 18.9647 18.5261 18.9647 18.8262C18.9647 19.1262 18.7215 19.3694 18.4214 19.3694H16.0439C15.7438 19.3694 15.5006 19.1262 15.5006 18.8262V14.3825C15.5006 14.0826 15.7438 13.8392 16.0439 13.8392H18.4946C18.7946 13.8392 19.0379 14.0824 19.0379 14.3825C19.0379 14.6826 18.7946 14.9258 18.4946 14.9258H16.587V15.7814L18.1288 15.7813Z" fill="url(#paint4_linear_7701_4958)"/>
<path d="M8.43378 11.2284C8.49965 11.2557 8.57025 11.2697 8.64153 11.2695C8.71295 11.2696 8.78369 11.2556 8.84966 11.2282C8.91564 11.2009 8.97554 11.1607 9.02593 11.1101C9.23792 10.8977 9.23757 10.5538 9.02522 10.3417C8.16692 9.48508 7.6941 8.34605 7.6941 7.13467C7.6941 5.92329 8.16692 4.78443 9.02522 3.92778C9.23757 3.71572 9.23792 3.37189 9.02593 3.15954C8.81401 2.94709 8.47004 2.94681 8.25769 3.15874C7.19365 4.2207 6.60767 5.63272 6.60767 7.13481C6.60767 8.63679 7.19365 10.0488 8.25769 11.1108C8.30807 11.1612 8.36791 11.2012 8.43378 11.2284Z" fill="url(#paint5_linear_7701_4958)"/>
<defs>
<linearGradient id="paint0_linear_7701_4958" x1="12.2435" y1="8.2556" x2="12.2435" y2="5.9939" gradientUnits="userSpaceOnUse">
<stop stop-color="#FFD4D4"/>
<stop offset="1" stop-color="white"/>
</linearGradient>
<linearGradient id="paint1_linear_7701_4958" x1="15.0264" y1="9.62595" x2="15.0264" y2="4.59961" gradientUnits="userSpaceOnUse">
<stop stop-color="#FFD4D4"/>
<stop offset="1" stop-color="white"/>
</linearGradient>
<linearGradient id="paint2_linear_7701_4958" x1="16.5874" y1="11.1974" x2="16.5874" y2="3" gradientUnits="userSpaceOnUse">
<stop stop-color="#FFD4D4"/>
<stop offset="1" stop-color="white"/>
</linearGradient>
<linearGradient id="paint3_linear_7701_4958" x1="9.4576" y1="9.62577" x2="9.4576" y2="4.59937" gradientUnits="userSpaceOnUse">
<stop stop-color="#FFD4D4"/>
<stop offset="1" stop-color="white"/>
</linearGradient>
<linearGradient id="paint4_linear_7701_4958" x1="12.2412" y1="21" x2="12.2412" y2="12.2087" gradientUnits="userSpaceOnUse">
<stop stop-color="#C02A2A"/>
<stop offset="1" stop-color="#FF0000"/>
</linearGradient>
<linearGradient id="paint5_linear_7701_4958" x1="7.89724" y1="11.1975" x2="7.89724" y2="3" gradientUnits="userSpaceOnUse">
<stop stop-color="#FFD4D4"/>
<stop offset="1" stop-color="white"/>
</linearGradient>
</defs>
</svg>
