<svg width="24" height="24" viewBox="0 0 24 24" fill="none" xmlns="http://www.w3.org/2000/svg">
<rect x="5" y="6" width="15" height="6" fill="url(#paint0_linear_7703_514)"/>
<rect width="7" height="2" transform="matrix(1 0 0 -1 5 16)" fill="url(#paint1_linear_7703_514)"/>
<path d="M19.0606 4H4.93943C3.87001 4 3 4.87005 3 5.93946V16.6715C3 17.7409 3.87001 18.6109 4.93943 18.6109H13.2422V16.3891C13.2422 14.5823 14.7121 13.1125 16.5187 13.1125C18.3254 13.1125 19.7953 14.5824 19.7953 16.3891V18.466C20.5013 18.1758 21 17.4809 21 16.6715V5.93946C21 4.87005 20.13 4 19.0606 4ZM8.04608 6.29686H15.9539C16.2451 6.29686 16.4813 6.53297 16.4813 6.82421C16.4813 7.11544 16.2451 7.35155 15.9539 7.35155H8.04608C7.75488 7.35155 7.51874 7.11544 7.51874 6.82421C7.51874 6.53297 7.75488 6.29686 8.04608 6.29686ZM11.5101 15.7867H5.7867C5.4955 15.7867 5.25935 15.5506 5.25935 15.2594C5.25935 14.9682 5.4955 14.732 5.7867 14.732H11.5102C11.8014 14.732 12.0375 14.9682 12.0375 15.2594C12.0375 15.5506 11.8014 15.7867 11.5101 15.7867ZM18.2132 11.8703H5.7867C5.4955 11.8703 5.25935 11.6342 5.25935 11.343C5.25935 11.0517 5.4955 10.8156 5.7867 10.8156H18.2133C18.5045 10.8156 18.7406 11.0517 18.7406 11.343C18.7406 11.6342 18.5045 11.8703 18.2132 11.8703ZM18.2132 9.61094H5.7867C5.4955 9.61094 5.25935 9.37483 5.25935 9.08359C5.25935 8.79236 5.4955 8.55625 5.7867 8.55625H18.2133C18.5045 8.55625 18.7406 8.79236 18.7406 9.08359C18.7406 9.37483 18.5045 9.61094 18.2132 9.61094Z" fill="url(#paint2_linear_7703_514)"/>
<path d="M16.5187 14.1672C15.2936 14.1672 14.2969 15.164 14.2969 16.3891C14.2969 17.6142 15.2936 18.611 16.5187 18.611C17.7439 18.611 18.7406 17.6142 18.7406 16.3891C18.7406 15.164 17.7439 14.1672 16.5187 14.1672ZM14.2969 18.7949V21.4727C14.2969 21.5682 14.3228 21.6618 14.3718 21.7437C14.4208 21.8256 14.4912 21.8926 14.5754 21.9377C14.6595 21.9827 14.7543 22.0041 14.8497 21.9995C14.945 21.9948 15.0373 21.9644 15.1167 21.9115L16.5187 20.9768L17.9207 21.9115C18.0073 21.9692 18.1091 22.0001 18.2133 22C18.2825 22 18.3511 21.9864 18.4151 21.9599C18.4791 21.9334 18.5372 21.8946 18.5861 21.8456C18.6351 21.7966 18.6739 21.7385 18.7004 21.6745C18.7269 21.6105 18.7406 21.542 18.7406 21.4727V18.7949C18.1562 19.335 17.3754 19.6657 16.5187 19.6657C15.6621 19.6657 14.8813 19.335 14.2969 18.7949Z" fill="url(#paint3_linear_7703_514)"/>
<defs>
<linearGradient id="paint0_linear_7703_514" x1="12.5061" y1="11.9477" x2="12.5061" y2="6" gradientUnits="userSpaceOnUse">
<stop stop-color="#FFCFAD"/>
<stop offset="1" stop-color="white"/>
</linearGradient>
<linearGradient id="paint1_linear_7703_514" x1="3.50285" y1="1.98257" x2="3.50285" y2="0" gradientUnits="userSpaceOnUse">
<stop stop-color="#FFCFAD"/>
<stop offset="1" stop-color="white"/>
</linearGradient>
<linearGradient id="paint2_linear_7703_514" x1="12" y1="18.6109" x2="12" y2="4" gradientUnits="userSpaceOnUse">
<stop stop-color="#FFB800"/>
<stop offset="1" stop-color="#FF7A00"/>
</linearGradient>
<linearGradient id="paint3_linear_7703_514" x1="16.5205" y1="21.9318" x2="16.5205" y2="14.1672" gradientUnits="userSpaceOnUse">
<stop offset="1" stop-color="#FFCFAD"/>
<stop stop-color="white"/>
</linearGradient>
</defs>
</svg>
