<svg width="24" height="24" viewBox="0 0 24 24" fill="none" xmlns="http://www.w3.org/2000/svg">
<path d="M19.5808 4.89536H12.5783V3.47583C12.5783 3.32237 12.5173 3.1752 12.4088 3.06669C12.3003 2.95818 12.1531 2.89722 11.9997 2.89722C11.8462 2.89722 11.699 2.95818 11.5905 3.06669C11.482 3.1752 11.4211 3.32237 11.4211 3.47583V4.89536H4.41855C4.04212 4.89553 3.68116 5.04514 3.41498 5.31132C3.14881 5.57749 2.99919 5.93846 2.99902 6.31489V15.2622C2.99902 16.0465 3.63485 16.6817 4.41855 16.6817H8.39812L6.35433 20.237C6.31433 20.3029 6.28791 20.3762 6.27663 20.4525C6.26535 20.5288 6.26944 20.6066 6.28865 20.6813C6.30787 20.756 6.34183 20.8261 6.38853 20.8874C6.43523 20.9488 6.49373 21.0002 6.5606 21.0387C6.62746 21.0771 6.70134 21.1018 6.77788 21.1113C6.85442 21.1208 6.93209 21.1149 7.00632 21.0939C7.08054 21.0729 7.14982 21.0373 7.21009 20.9892C7.27036 20.9411 7.3204 20.8814 7.35726 20.8136L9.73279 16.6811H14.2653L16.6408 20.8136C16.6776 20.8814 16.7277 20.9411 16.788 20.9892C16.8482 21.0373 16.9175 21.0729 16.9917 21.0939C17.066 21.1149 17.1436 21.1208 17.2202 21.1113C17.2967 21.1018 17.3706 21.0771 17.4375 21.0387C17.5043 21.0002 17.5628 20.9488 17.6095 20.8874C17.6562 20.8261 17.6902 20.756 17.7094 20.6813C17.7286 20.6066 17.7327 20.5288 17.7214 20.4525C17.7101 20.3762 17.6837 20.3029 17.6437 20.237L15.5999 16.6817H19.5795C20.3638 16.6817 20.999 16.0459 20.999 15.2622V6.31489C20.9992 6.12854 20.9626 5.94397 20.8914 5.77176C20.8202 5.59954 20.7158 5.44304 20.5841 5.31121C20.4524 5.17938 20.296 5.07479 20.1238 5.00344C19.9517 4.93209 19.7671 4.89536 19.5808 4.89536Z" fill="url(#paint0_linear_7705_311)"/>
<path d="M3.64209 6.42923C3.64209 5.9558 4.02587 5.57202 4.49929 5.57202H19.5004C19.9738 5.57202 20.3576 5.9558 20.3576 6.42923V15.0013C20.3576 15.4747 19.9738 15.8585 19.5004 15.8585H4.49929C4.02587 15.8585 3.64209 15.4747 3.64209 15.0013V6.42923Z" fill="url(#paint1_linear_7705_311)"/>
<path d="M5.14209 9.75089C5.14209 9.57336 5.28601 9.42944 5.46354 9.42944H8.24945C8.42699 9.42944 8.57091 9.57336 8.57091 9.75089C8.57091 9.92843 8.42699 10.0723 8.24945 10.0723H5.46354C5.28601 10.0723 5.14209 9.92843 5.14209 9.75089Z" fill="url(#paint2_linear_7705_311)"/>
<path d="M5.14209 8.0363C5.14209 7.85876 5.28601 7.71484 5.46354 7.71484H10.8211C10.9986 7.71484 11.1425 7.85876 11.1425 8.0363C11.1425 8.21383 10.9986 8.35775 10.8211 8.35775H5.46354C5.28601 8.35775 5.14209 8.21383 5.14209 8.0363Z" fill="url(#paint3_linear_7705_311)"/>
<defs>
<linearGradient id="paint0_linear_7705_311" x1="11.999" y1="21.1157" x2="11.999" y2="2.89722" gradientUnits="userSpaceOnUse">
<stop stop-color="#4769E2"/>
<stop offset="1" stop-color="#60A7E8"/>
</linearGradient>
<linearGradient id="paint1_linear_7705_311" x1="12.0066" y1="15.7688" x2="12.0066" y2="5.57202" gradientUnits="userSpaceOnUse">
<stop stop-color="#ADD8FF"/>
<stop offset="1" stop-color="white"/>
</linearGradient>
<linearGradient id="paint2_linear_7705_311" x1="6.8565" y1="10.0723" x2="6.8565" y2="9.42944" gradientUnits="userSpaceOnUse">
<stop stop-color="#4769E2"/>
<stop offset="1" stop-color="#60A7E8"/>
</linearGradient>
<linearGradient id="paint3_linear_7705_311" x1="8.14231" y1="8.35775" x2="8.14231" y2="7.71484" gradientUnits="userSpaceOnUse">
<stop stop-color="#4769E2"/>
<stop offset="1" stop-color="#60A7E8"/>
</linearGradient>
</defs>
</svg>
