<svg width="24" height="24" viewBox="0 0 24 24" fill="none" xmlns="http://www.w3.org/2000/svg">
<path d="M4.55817 3.15356H9.91673C10.2889 3.15468 10.6455 3.30302 10.9087 3.56619C11.1719 3.82936 11.3202 4.18599 11.3213 4.55817V9.91673C11.3202 10.2889 11.1719 10.6455 10.9087 10.9087C10.6455 11.1719 10.2889 11.3202 9.91673 11.3213H4.55817C4.18579 11.3209 3.82879 11.1727 3.56548 10.9094C3.30216 10.6461 3.15403 10.2891 3.15356 9.91673V4.55817C3.15403 4.18579 3.30216 3.82879 3.56548 3.56547C3.82879 3.30216 4.18579 3.15403 4.55817 3.15356Z" fill="url(#paint0_linear_7701_5213)"/>
<path d="M4.55817 12.9858H9.91673C10.2889 12.987 10.6455 13.1353 10.9087 13.3985C11.1719 13.6616 11.3202 14.0183 11.3213 14.3904V19.749C11.3202 20.1212 11.1719 20.4778 10.9087 20.741C10.6455 21.0042 10.2889 21.1525 9.91673 21.1536H4.55817C4.18579 21.1531 3.82879 21.005 3.56548 20.7417C3.30216 20.4784 3.15403 20.1214 3.15356 19.749V14.3904C3.15403 14.0181 3.30216 13.6611 3.56548 13.3977C3.82879 13.1344 4.18579 12.9863 4.55817 12.9858Z" fill="url(#paint1_linear_7701_5213)"/>
<path d="M14.3904 3.15356H19.749C20.1212 3.15468 20.4778 3.30302 20.741 3.56619C21.0042 3.82936 21.1525 4.18599 21.1536 4.55817V9.91673C21.1525 10.2889 21.0042 10.6455 20.741 10.9087C20.4778 11.1719 20.1212 11.3202 19.749 11.3213H14.3904C14.0181 11.3209 13.6611 11.1727 13.3978 10.9094C13.1344 10.6461 12.9863 10.2891 12.9858 9.91673V4.55817C12.9863 4.18579 13.1344 3.82879 13.3978 3.56547C13.6611 3.30216 14.0181 3.15403 14.3904 3.15356Z" fill="url(#paint2_linear_7701_5213)"/>
<path d="M14.3904 12.9858H19.749C20.1212 12.987 20.4778 13.1353 20.741 13.3985C21.0042 13.6616 21.1525 14.0183 21.1536 14.3904V19.749C21.1525 20.1212 21.0042 20.4778 20.741 20.741C20.4778 21.0042 20.1212 21.1525 19.749 21.1536H14.3904C14.0181 21.1531 13.6611 21.005 13.3978 20.7417C13.1344 20.4784 12.9863 20.1214 12.9858 19.749V14.3904C12.9863 14.0181 13.1344 13.6611 13.3978 13.3977C13.6611 13.1344 14.0181 12.9863 14.3904 12.9858Z" fill="url(#paint3_linear_7701_5213)"/>
<defs>
<linearGradient id="paint0_linear_7701_5213" x1="7.23745" y1="11.3213" x2="7.23745" y2="3.15356" gradientUnits="userSpaceOnUse">
<stop stop-color="#21A9CA"/>
<stop offset="1" stop-color="#BCF2FF"/>
</linearGradient>
<linearGradient id="paint1_linear_7701_5213" x1="7.24078" y1="21.0824" x2="7.24078" y2="12.9858" gradientUnits="userSpaceOnUse">
<stop stop-color="#C9F9FF"/>
<stop offset="1" stop-color="white"/>
</linearGradient>
<linearGradient id="paint2_linear_7701_5213" x1="17.0731" y1="11.2502" x2="17.0731" y2="3.15356" gradientUnits="userSpaceOnUse">
<stop stop-color="#C9F9FF"/>
<stop offset="1" stop-color="white"/>
</linearGradient>
<linearGradient id="paint3_linear_7701_5213" x1="17.0697" y1="21.1536" x2="17.0697" y2="12.9858" gradientUnits="userSpaceOnUse">
<stop stop-color="#21A9CA"/>
<stop offset="1" stop-color="#BCF2FF"/>
</linearGradient>
</defs>
</svg>
