<svg width="24" height="24" viewBox="0 0 24 24" fill="none" xmlns="http://www.w3.org/2000/svg">
<path d="M4.13199 16.3525L3.05729 19.5768C2.77587 20.421 3.57902 21.2241 4.4232 20.9427L7.64746 19.868C8.9817 20.6088 10.4761 20.9981 12.0009 20.9981C16.9629 20.9981 20.9999 16.9612 21 11.9991C21.0001 7.0367 16.9634 3.00007 12.001 3C7.03891 2.99993 3.00186 7.03691 3.00186 11.9991C3.00186 13.5239 3.39112 15.0182 4.13199 16.3525Z" fill="url(#paint0_linear_7701_5223)"/>
<path d="M12.0008 8.75939C12.5972 8.75939 13.0807 8.27588 13.0807 7.6795C13.0807 7.08311 12.5972 6.59961 12.0008 6.59961C11.4044 6.59961 10.9209 7.08311 10.9209 7.6795C10.9209 8.27588 11.4044 8.75939 12.0008 8.75939Z" fill="url(#paint1_linear_7701_5223)"/>
<path d="M13.0807 11.2791V16.3186C13.0807 16.915 12.5972 17.3985 12.0008 17.3985C11.4044 17.3985 10.9209 16.915 10.9209 16.3186V11.2791C10.9209 10.6827 11.4044 10.1992 12.0008 10.1992C12.5972 10.1992 13.0807 10.6827 13.0807 11.2791Z" fill="url(#paint2_linear_7701_5223)"/>
<defs>
<linearGradient id="paint0_linear_7701_5223" x1="12.0073" y1="20.8431" x2="12.0073" y2="3" gradientUnits="userSpaceOnUse">
<stop stop-color="#ADFFF4"/>
<stop offset="1" stop-color="white"/>
</linearGradient>
<linearGradient id="paint1_linear_7701_5223" x1="12.0008" y1="17.3985" x2="12.0008" y2="6.59961" gradientUnits="userSpaceOnUse">
<stop stop-color="#47E2CC"/>
<stop offset="1" stop-color="#2AC0AF"/>
</linearGradient>
<linearGradient id="paint2_linear_7701_5223" x1="12.0008" y1="17.3985" x2="12.0008" y2="6.59961" gradientUnits="userSpaceOnUse">
<stop stop-color="#47E2CC"/>
<stop offset="1" stop-color="#2AC0AF"/>
</linearGradient>
</defs>
</svg>
