<svg width="24" height="24" viewBox="0 0 24 24" fill="none" xmlns="http://www.w3.org/2000/svg">
<path d="M7.07812 18.1875H18.3281C18.6194 18.1875 18.8555 17.9514 18.8555 17.6602V3.52734C18.8555 3.23611 18.6194 3 18.3281 3H7.07812C6.01194 3 5.14453 3.86741 5.14453 4.93359V19.0664C5.14453 20.1326 6.01194 21 7.07812 21H18.3281C18.6194 21 18.8555 20.7639 18.8555 20.4727C18.8555 20.1814 18.6194 19.9453 18.3281 19.9453H7.07812C6.5935 19.9453 6.19922 19.551 6.19922 19.0664C6.19922 18.5818 6.5935 18.1875 7.07812 18.1875Z" fill="url(#paint0_linear_7703_503)"/>
<path d="M7.07812 18.1875C6.5935 18.1875 6.19922 18.5818 6.19922 19.0664C6.19922 19.551 6.5935 19.9453 7.07812 19.9453H17.8008V18.1875H7.07812Z" fill="url(#paint1_linear_7703_503)"/>
<rect x="7" y="6" width="10" height="4" rx="1.5" fill="url(#paint2_linear_7703_503)"/>
<defs>
<linearGradient id="paint0_linear_7703_503" x1="12" y1="21" x2="12" y2="3" gradientUnits="userSpaceOnUse">
<stop stop-color="#4769E2"/>
<stop offset="1" stop-color="#60A7E8"/>
</linearGradient>
<linearGradient id="paint1_linear_7703_503" x1="12.0047" y1="19.93" x2="12.0047" y2="18.1875" gradientUnits="userSpaceOnUse">
<stop stop-color="#ADD8FF"/>
<stop offset="1" stop-color="white"/>
</linearGradient>
<linearGradient id="paint2_linear_7703_503" x1="12.0041" y1="9.96514" x2="12.0041" y2="6" gradientUnits="userSpaceOnUse">
<stop stop-color="#ADD8FF"/>
<stop offset="1" stop-color="white"/>
</linearGradient>
</defs>
</svg>
