<svg width="24" height="24" viewBox="0 0 24 24" fill="none" xmlns="http://www.w3.org/2000/svg">
<path d="M9.65625 10.8281C8.99937 10.8281 8.48438 11.3431 8.48438 12C8.48438 12.6569 8.99937 13.1719 9.65625 13.1719H14.3438C15.0006 13.1719 15.5156 12.6569 15.5156 12C15.5156 11.3431 15.0006 10.8281 14.3438 10.8281H9.65625ZM20.5604 12.0938C20.3933 11.9851 20.1838 11.9702 20.0019 12.0515C18.1067 12.9018 11.28 15.4161 4.00387 12.0538C3.82074 11.9708 3.61133 11.9851 3.44195 12.0921C3.35919 12.1452 3.29109 12.2183 3.2439 12.3046C3.19671 12.3908 3.17195 12.4876 3.17188 12.5859V17.8594C3.17188 18.8287 3.96039 19.6172 4.92969 19.6172H19.0703C20.0396 19.6172 20.8281 18.8287 20.8281 17.8594V12.5859C20.8281 12.3874 20.7274 12.202 20.5604 12.0938ZM8.48438 7.89844C8.80824 7.89844 9.07031 7.63637 9.07031 7.3125V6.14062C9.07031 5.81734 9.33352 5.55469 9.65625 5.55469H14.3438C14.6665 5.55469 14.9297 5.81734 14.9297 6.14062V7.3125C14.9297 7.63637 15.1918 7.89844 15.5156 7.89844C15.8395 7.89844 16.1016 7.63637 16.1016 7.3125V6.14062C16.1016 5.17133 15.313 4.38281 14.3438 4.38281H9.65625C8.68695 4.38281 7.89844 5.17133 7.89844 6.14062V7.3125C7.89844 7.63637 8.16051 7.89844 8.48438 7.89844Z" fill="url(#paint0_linear_7701_5235)"/>
<path d="M20.2422 6.72656H3.75781C2.78512 6.72656 2 7.51172 2 8.48438V11.2734C2 11.9531 2.375 12.5507 2.94922 12.8437C4.8777 13.929 8.38199 14.9297 11.8125 14.9297C15.1706 14.9297 18.615 14.0629 21.0273 12.8554C21.625 12.5507 22 11.9531 22 11.2734V8.48438C22 7.51172 21.2149 6.72656 20.2422 6.72656ZM14.3438 12.5859H9.65625C9.32809 12.5859 9.07031 12.3281 9.07031 12C9.07031 11.6718 9.32809 11.4141 9.65625 11.4141H14.3438C14.6719 11.4141 14.9297 11.6718 14.9297 12C14.9297 12.3281 14.6719 12.5859 14.3438 12.5859Z" fill="url(#paint1_linear_7701_5235)"/>
<defs>
<linearGradient id="paint0_linear_7701_5235" x1="11.375" y1="28.25" x2="12" y2="4.38281" gradientUnits="userSpaceOnUse">
<stop stop-color="#D26A0A"/>
<stop offset="1" stop-color="#FFF1E4"/>
</linearGradient>
<linearGradient id="paint1_linear_7701_5235" x1="12" y1="14.9297" x2="12" y2="6.72656" gradientUnits="userSpaceOnUse">
<stop stop-color="#783300"/>
<stop offset="1" stop-color="#D26A0A"/>
</linearGradient>
</defs>
</svg>
